<svg width="36" height="37" viewBox="0 0 36 37" fill="none" xmlns="http://www.w3.org/2000/svg">
<rect y="0.230774" width="36" height="36" rx="10.3226" fill="url(#paint0_radial_429_8792)"/>
<rect x="2.375" y="2.60572" width="31.25" height="31.25" rx="10.3226" fill="url(#paint1_radial_429_8792)"/>
<mask id="mask0_429_8792" style="mask-type:alpha" maskUnits="userSpaceOnUse" x="9" y="9" width="18" height="19">
<rect x="9" y="9.23078" width="18" height="18" fill="#D9D9D9"/>
</mask>
<g mask="url(#mask0_429_8792)">
<path d="M17.25 21.9808H18.75V21.2308H19.5C19.7125 21.2308 19.8906 21.1589 20.0344 21.0152C20.1781 20.8714 20.25 20.6933 20.25 20.4808V18.2308C20.25 18.0183 20.1781 17.8402 20.0344 17.6964C19.8906 17.5527 19.7125 17.4808 19.5 17.4808H17.25V16.7308H20.25V15.2308H18.75V14.4808H17.25V15.2308H16.5C16.2875 15.2308 16.1094 15.3027 15.9656 15.4464C15.8219 15.5902 15.75 15.7683 15.75 15.9808V18.2308C15.75 18.4433 15.8219 18.6214 15.9656 18.7652C16.1094 18.9089 16.2875 18.9808 16.5 18.9808H18.75V19.7308H15.75V21.2308H17.25V21.9808ZM12 24.2308C11.5875 24.2308 11.2344 24.0839 10.9406 23.7902C10.6469 23.4964 10.5 23.1433 10.5 22.7308V13.7308C10.5 13.3183 10.6469 12.9652 10.9406 12.6714C11.2344 12.3777 11.5875 12.2308 12 12.2308H24C24.4125 12.2308 24.7656 12.3777 25.0594 12.6714C25.3531 12.9652 25.5 13.3183 25.5 13.7308V22.7308C25.5 23.1433 25.3531 23.4964 25.0594 23.7902C24.7656 24.0839 24.4125 24.2308 24 24.2308H12Z" fill="#8B67D6"/>
</g>
<defs>
<radialGradient id="paint0_radial_429_8792" cx="0" cy="0" r="1" gradientUnits="userSpaceOnUse" gradientTransform="translate(1.73077 -12.5769) rotate(71.4584) scale(58.782)">
<stop stop-color="#854CFF"/>
<stop offset="1" stop-color="#090909"/>
</radialGradient>
<radialGradient id="paint1_radial_429_8792" cx="0" cy="0" r="1" gradientUnits="userSpaceOnUse" gradientTransform="translate(3.8774 -8.51207) rotate(71.4584) scale(51.026)">
<stop stop-color="#7435FA"/>
<stop offset="1" stop-color="#050505"/>
</radialGradient>
</defs>
</svg>
