<svg width="48" height="48" viewBox="0 0 48 48" fill="none" xmlns="http://www.w3.org/2000/svg">
<rect width="48" height="48" rx="13.7634" fill="url(#paint0_radial_429_9622)"/>
<rect x="3.16406" y="3.1665" width="41.6667" height="41.6667" rx="13.7634" fill="url(#paint1_radial_429_9622)"/>
<mask id="mask0_429_9622" style="mask-type:alpha" maskUnits="userSpaceOnUse" x="12" y="12" width="24" height="24">
<rect x="12" y="12" width="24" height="24" fill="#D9D9D9"/>
</mask>
<g mask="url(#mask0_429_9622)">
<path d="M19 28H29V26H19V28ZM19 24H23V22.5H21.575C21.9083 22.1833 22.2833 21.9375 22.7 21.7625C23.1167 21.5875 23.55 21.5 24 21.5C24.7833 21.5 25.4792 21.7292 26.0875 22.1875C26.6958 22.6458 27.1167 23.25 27.35 24H28.9C28.6667 22.8333 28.0917 21.875 27.175 21.125C26.2583 20.375 25.2 20 24 20C23.35 20 22.7208 20.125 22.1125 20.375C21.5042 20.625 20.9667 20.9833 20.5 21.45V20H19V24ZM24 34C22.6167 34 21.3167 33.7375 20.1 33.2125C18.8833 32.6875 17.825 31.975 16.925 31.075C16.025 30.175 15.3125 29.1167 14.7875 27.9C14.2625 26.6833 14 25.3833 14 24C14 22.6167 14.2625 21.3167 14.7875 20.1C15.3125 18.8833 16.025 17.825 16.925 16.925C17.825 16.025 18.8833 15.3125 20.1 14.7875C21.3167 14.2625 22.6167 14 24 14C25.3833 14 26.6833 14.2625 27.9 14.7875C29.1167 15.3125 30.175 16.025 31.075 16.925C31.975 17.825 32.6875 18.8833 33.2125 20.1C33.7375 21.3167 34 22.6167 34 24C34 25.3833 33.7375 26.6833 33.2125 27.9C32.6875 29.1167 31.975 30.175 31.075 31.075C30.175 31.975 29.1167 32.6875 27.9 33.2125C26.6833 33.7375 25.3833 34 24 34Z" fill="#9A74EB"/>
</g>
<defs>
<radialGradient id="paint0_radial_429_9622" cx="0" cy="0" r="1" gradientUnits="userSpaceOnUse" gradientTransform="translate(2.30769 -17.0769) rotate(71.4584) scale(78.376)">
<stop stop-color="#854CFF"/>
<stop offset="1" stop-color="#090909"/>
</radialGradient>
<radialGradient id="paint1_radial_429_9622" cx="0" cy="0" r="1" gradientUnits="userSpaceOnUse" gradientTransform="translate(5.16726 -11.6572) rotate(71.4584) scale(68.0347)">
<stop stop-color="#7435FA"/>
<stop offset="1" stop-color="#050505"/>
</radialGradient>
</defs>
</svg>
