<svg width="432" height="281" viewBox="0 0 432 281" fill="none" xmlns="http://www.w3.org/2000/svg">
<g opacity="0.04" filter="url(#filter0_f_429_8736)">
<circle cx="139.998" cy="140.615" r="46.6154" fill="white"/>
</g>
<path d="M155.745 163.267C154.933 161.522 156.644 159.836 158.384 160.621C158.76 160.796 159.05 161.086 159.224 161.464C160.007 163.208 158.326 164.895 156.586 164.11C156.209 163.935 155.919 163.645 155.745 163.267Z" fill="white" fill-opacity="0.4"/>
<path d="M131.455 139.094C132.238 137.35 130.556 135.664 128.816 136.448C128.439 136.623 128.15 136.914 127.976 137.292C127.164 139.036 128.874 140.722 130.614 139.937C130.991 139.763 131.281 139.472 131.455 139.094Z" fill="white" fill-opacity="0.4"/>
<path d="M108.724 101.113C109.507 99.3684 107.826 97.6823 106.086 98.4672C105.709 98.6416 105.419 98.9323 105.245 99.3103C104.433 101.055 106.144 102.741 107.884 101.956C108.26 101.781 108.55 101.491 108.724 101.113Z" fill="white" fill-opacity="0.8"/>
<path d="M143.685 89.4588C144.47 87.7145 142.784 86.0284 141.039 86.8133C140.661 86.9878 140.371 87.2785 140.196 87.6564C139.411 89.4007 141.097 91.0869 142.842 90.3019C143.22 90.1275 143.51 89.8368 143.685 89.4588Z" fill="white" fill-opacity="0.4"/>
<path d="M155.745 120.536C154.933 118.792 156.644 117.105 158.384 117.89C158.761 118.065 159.05 118.355 159.224 118.733C160.007 120.478 158.326 122.164 156.586 121.379C156.209 121.205 155.919 120.914 155.745 120.536Z" fill="white" fill-opacity="0.8"/>
<path d="M109.128 171.036C108.316 169.292 110.027 167.605 111.766 168.39C112.143 168.565 112.433 168.855 112.607 169.233C113.39 170.978 111.708 172.664 109.969 171.879C109.592 171.704 109.302 171.414 109.128 171.036Z" fill="white" fill-opacity="0.4"/>
<g opacity="0.1" filter="url(#filter1_f_429_8736)">
<circle cx="291.998" cy="140.615" r="46.6154" fill="white"/>
</g>
<path d="M249.476 132.19C248.664 130.445 250.374 128.759 252.114 129.544C252.491 129.719 252.781 130.009 252.955 130.387C253.738 132.132 252.056 133.818 250.316 133.033C249.939 132.858 249.65 132.568 249.476 132.19Z" fill="white" fill-opacity="0.4"/>
<path d="M283.455 150.748C284.238 149.004 282.556 147.317 280.816 148.102C280.439 148.277 280.15 148.567 279.976 148.945C279.164 150.69 280.874 152.376 282.614 151.591C282.991 151.417 283.281 151.126 283.455 150.748Z" fill="white"/>
<path d="M276.263 108.882C277.046 107.138 275.365 105.452 273.625 106.236C273.248 106.411 272.958 106.702 272.784 107.08C271.972 108.824 273.683 110.51 275.423 109.725C275.8 109.551 276.089 109.26 276.263 108.882Z" fill="white" fill-opacity="0.8"/>
<path d="M318.993 101.113C319.778 99.3684 318.092 97.6823 316.348 98.4672C315.97 98.6416 315.679 98.9324 315.505 99.3103C314.72 101.055 316.406 102.741 318.15 101.956C318.528 101.781 318.819 101.491 318.993 101.113Z" fill="white" fill-opacity="0.4"/>
<path d="M323.284 132.19C322.472 130.445 324.183 128.759 325.923 129.544C326.3 129.719 326.589 130.009 326.763 130.387C327.546 132.132 325.865 133.818 324.125 133.033C323.748 132.858 323.458 132.568 323.284 132.19Z" fill="white" fill-opacity="0.3"/>
<path d="M307.745 167.151C306.933 165.407 308.644 163.721 310.384 164.506C310.76 164.68 311.05 164.971 311.224 165.349C312.007 167.093 310.326 168.779 308.586 167.994C308.209 167.82 307.919 167.529 307.745 167.151Z" fill="white" fill-opacity="0.4"/>
<path d="M253.358 174.92C252.547 173.176 254.257 171.49 255.997 172.275C256.374 172.449 256.664 172.74 256.838 173.118C257.621 174.862 255.939 176.548 254.199 175.764C253.822 175.589 253.532 175.298 253.358 174.92Z" fill="white" fill-opacity="0.4"/>
<g filter="url(#filter2_d_429_8736)">
<rect x="174.383" y="101" width="80" height="80" rx="20.6452" fill="url(#paint0_radial_429_8736)"/>
<rect x="183.133" y="109.75" width="62.5" height="62.5" rx="20.6452" fill="url(#paint1_radial_429_8736)"/>
<path fill-rule="evenodd" clip-rule="evenodd" d="M216.031 157.866C226.064 156.253 232.888 146.818 231.273 136.792C229.659 126.767 220.218 119.947 210.185 121.561C200.153 123.174 193.329 132.609 194.943 142.634C196.201 150.447 202.212 156.313 209.552 157.758C208.361 149.134 212.264 143.466 214.077 141.302C210.118 143.756 207.88 149.219 207.734 151.657C201.174 144.815 206.15 138.436 212.46 137.164C215.442 136.333 214.851 133.201 214.585 131.787C214.54 131.55 214.504 131.362 214.496 131.24C217.838 133.306 220.343 138.135 220.429 142.073C220.521 146.285 218.598 150.074 213.904 151.641C212.269 152.187 210.991 153.647 211.123 155.364L211.325 158.018C212.86 158.166 214.438 158.122 216.031 157.866Z" fill="#9A74EB"/>
</g>
<defs>
<filter id="filter0_f_429_8736" x="0.152039" y="0.769226" width="279.692" height="279.692" filterUnits="userSpaceOnUse" color-interpolation-filters="sRGB">
<feFlood flood-opacity="0" result="BackgroundImageFix"/>
<feBlend mode="normal" in="SourceGraphic" in2="BackgroundImageFix" result="shape"/>
<feGaussianBlur stdDeviation="46.6154" result="effect1_foregroundBlur_429_8736"/>
</filter>
<filter id="filter1_f_429_8736" x="152.152" y="0.769226" width="279.692" height="279.692" filterUnits="userSpaceOnUse" color-interpolation-filters="sRGB">
<feFlood flood-opacity="0" result="BackgroundImageFix"/>
<feBlend mode="normal" in="SourceGraphic" in2="BackgroundImageFix" result="shape"/>
<feGaussianBlur stdDeviation="46.6154" result="effect1_foregroundBlur_429_8736"/>
</filter>
<filter id="filter2_d_429_8736" x="146.383" y="77" width="136" height="136" filterUnits="userSpaceOnUse" color-interpolation-filters="sRGB">
<feFlood flood-opacity="0" result="BackgroundImageFix"/>
<feColorMatrix in="SourceAlpha" type="matrix" values="0 0 0 0 0 0 0 0 0 0 0 0 0 0 0 0 0 0 127 0" result="hardAlpha"/>
<feMorphology radius="4" operator="dilate" in="SourceAlpha" result="effect1_dropShadow_429_8736"/>
<feOffset dy="4"/>
<feGaussianBlur stdDeviation="12"/>
<feComposite in2="hardAlpha" operator="out"/>
<feColorMatrix type="matrix" values="0 0 0 0 0.568627 0 0 0 0 0.427451 0 0 0 0 0.87451 0 0 0 0.6 0"/>
<feBlend mode="normal" in2="BackgroundImageFix" result="effect1_dropShadow_429_8736"/>
<feBlend mode="normal" in="SourceGraphic" in2="effect1_dropShadow_429_8736" result="shape"/>
</filter>
<radialGradient id="paint0_radial_429_8736" cx="0" cy="0" r="1" gradientUnits="userSpaceOnUse" gradientTransform="translate(178.229 72.5385) rotate(71.4584) scale(130.627)">
<stop stop-color="#854CFF"/>
<stop offset="1" stop-color="#090909"/>
</radialGradient>
<radialGradient id="paint1_radial_429_8736" cx="0" cy="0" r="1" gradientUnits="userSpaceOnUse" gradientTransform="translate(186.138 87.5144) rotate(71.4584) scale(102.052)">
<stop stop-color="#7435FA"/>
<stop offset="1" stop-color="#050505"/>
</radialGradient>
</defs>
</svg>
