<svg width="108" height="38" viewBox="0 0 108 38" fill="none" xmlns="http://www.w3.org/2000/svg">
<g clip-path="url(#clip0_429_8720)">
<path fill-rule="evenodd" clip-rule="evenodd" d="M21.9856 37.7055C32.3289 36.0422 39.3645 26.3145 37.7001 15.9781C36.0358 5.64173 26.3016 -1.38922 15.9583 0.274042C5.61503 1.93731 -1.42063 11.665 0.243748 22.0014C1.54072 30.056 7.73793 36.1035 15.3051 37.5939C14.0776 28.7023 18.1014 22.8589 19.971 20.6271C15.8889 23.158 13.5816 28.79 13.4306 31.3032C6.66748 24.2496 11.7975 17.673 18.3033 16.361C21.3781 15.505 20.7689 12.2752 20.4938 10.8174C20.4478 10.5736 20.4111 10.3793 20.4027 10.254C23.8477 12.3841 26.431 17.3627 26.5194 21.4229C26.614 25.7652 24.6319 29.6713 19.7923 31.2873C18.1069 31.8501 16.7893 33.3549 16.9246 35.1255L17.1337 37.8616C18.7157 38.0144 20.343 37.9696 21.9856 37.7055Z" fill="#9A74EB"/>
<path d="M47.1992 16.1961V3.49139H55.372V5.66935H49.5966V8.70032H54.8635V10.8783H49.5966V14.0182H55.481V16.1961H47.1992ZM59.8709 16.4502C59.1565 16.4502 58.4845 16.2748 57.8549 15.9239C57.2374 15.5609 56.741 15.0345 56.3657 14.3449C55.9903 13.6552 55.8026 12.8203 55.8026 11.8402V11.5498C55.8026 10.5697 55.9903 9.7349 56.3657 9.04518C56.741 8.35549 57.2374 7.83521 57.8549 7.48431C58.4725 7.12132 59.1444 6.93982 59.8709 6.93982C60.4157 6.93982 60.8697 7.00637 61.233 7.13947C61.6084 7.26047 61.911 7.41776 62.141 7.61136C62.3711 7.80496 62.5467 8.01065 62.6678 8.22844H62.9947V3.49139H65.2831V16.1961H63.031V15.1072H62.7041C62.4982 15.446 62.1774 15.7545 61.7415 16.0328C61.3178 16.3111 60.6942 16.4502 59.8709 16.4502ZM60.561 14.4538C61.2633 14.4538 61.8505 14.2299 62.3227 13.7822C62.7949 13.3224 63.031 12.6569 63.031 11.7858V11.6043C63.031 10.7331 62.7949 10.0737 62.3227 9.62594C61.8626 9.16616 61.2754 8.93631 60.561 8.93631C59.8588 8.93631 59.2716 9.16616 58.7993 9.62594C58.3271 10.0737 58.091 10.7331 58.091 11.6043V11.7858C58.091 12.6569 58.3271 13.3224 58.7993 13.7822C59.2716 14.2299 59.8588 14.4538 60.561 14.4538ZM70.835 16.4502C69.9391 16.4502 69.146 16.2627 68.4559 15.8876C67.7778 15.5004 67.245 14.962 66.8576 14.2723C66.4822 13.5705 66.2946 12.7477 66.2946 11.804V11.5861C66.2946 10.6424 66.4822 9.82561 66.8576 9.13589C67.233 8.43414 67.7596 7.8957 68.4377 7.52061C69.1157 7.13342 69.9028 6.93982 70.7987 6.93982C71.6826 6.93982 72.4514 7.13947 73.1053 7.53876C73.7591 7.92595 74.2676 8.47044 74.6308 9.17221C74.9941 9.86193 75.1757 10.6666 75.1757 11.5861V12.3666H68.6193C68.6435 12.9836 68.8735 13.4858 69.3095 13.873C69.7454 14.2602 70.278 14.4538 70.9076 14.4538C71.5494 14.4538 72.0216 14.3146 72.3243 14.0364C72.627 13.758 72.857 13.4495 73.0144 13.1107L74.8852 14.0908C74.7156 14.4053 74.4674 14.7502 74.1405 15.1253C73.8257 15.4883 73.4019 15.8029 72.8691 16.0691C72.3364 16.3232 71.6584 16.4502 70.835 16.4502ZM68.6375 10.6605H72.851C72.8026 10.1402 72.5907 9.72279 72.2153 9.4082C71.8521 9.09361 71.3739 8.93631 70.7805 8.93631C70.163 8.93631 69.6727 9.09361 69.3095 9.4082C68.9462 9.72279 68.7222 10.1402 68.6375 10.6605ZM76.1228 16.1961V7.19392H78.3749V8.37364H78.7018C78.8471 8.05905 79.1195 7.76261 79.5191 7.48431C79.9186 7.19392 80.524 7.04873 81.3352 7.04873C82.0375 7.04873 82.6489 7.21207 83.1696 7.53876C83.7023 7.85336 84.114 8.29499 84.4046 8.86367C84.6951 9.4203 84.8404 10.0737 84.8404 10.8239V16.1961H82.5521V11.0054C82.5521 10.3278 82.3826 9.81955 82.0436 9.48075C81.7166 9.14194 81.2444 8.97254 80.6269 8.97254C79.9247 8.97254 79.3798 9.20853 78.9924 9.68042C78.6049 10.1402 78.4112 10.7875 78.4112 11.6224V16.1961H76.1228ZM47.1992 34.347V21.6422H55.1904V23.8202H49.5966V26.8875H54.7545V29.0654H49.5966V34.347H47.1992ZM55.8838 34.347V25.3448H58.1722V34.347H55.8838ZM57.028 24.2921C56.6164 24.2921 56.2652 24.159 55.9746 23.8928C55.6961 23.6266 55.5569 23.2757 55.5569 22.8401C55.5569 22.4045 55.6961 22.0536 55.9746 21.7874C56.2652 21.5213 56.6164 21.3881 57.028 21.3881C57.4517 21.3881 57.8029 21.5213 58.0813 21.7874C58.3599 22.0536 58.4991 22.4045 58.4991 22.8401C58.4991 23.2757 58.3599 23.6266 58.0813 23.8928C57.8029 24.159 57.4517 24.2921 57.028 24.2921ZM59.6183 34.347V25.3448H61.8704V26.5245H62.1973C62.3426 26.2099 62.615 25.9134 63.0146 25.6352C63.4141 25.3448 64.0195 25.1996 64.8307 25.1996C65.533 25.1996 66.1444 25.363 66.6651 25.6896C67.1978 26.0042 67.6095 26.4459 67.9001 27.0145C68.1906 27.5711 68.3359 28.2245 68.3359 28.9747V34.347H66.0476V29.1562C66.0476 28.4786 65.8781 27.9704 65.5391 27.6316C65.2121 27.2928 64.7399 27.1234 64.1224 27.1234C63.4202 27.1234 62.8754 27.3594 62.4879 27.8313C62.1004 28.291 61.9067 28.9384 61.9067 29.7733V34.347H59.6183ZM72.517 34.601C71.8752 34.601 71.3001 34.4922 70.7916 34.2744C70.2831 34.0445 69.8775 33.7178 69.5748 33.2943C69.2842 32.8587 69.1389 32.3324 69.1389 31.7153C69.1389 31.0982 69.2842 30.584 69.5748 30.1725C69.8775 29.7491 70.2891 29.4345 70.8098 29.2288C71.3425 29.011 71.9479 28.9021 72.626 28.9021H75.0959V28.3939C75.0959 27.9704 74.9628 27.6255 74.6964 27.3594C74.43 27.0811 74.0062 26.942 73.4251 26.942C72.856 26.942 72.4322 27.0751 72.1538 27.3412C71.8752 27.5954 71.6937 27.928 71.6089 28.3395L69.5021 27.6316C69.6474 27.1718 69.8775 26.7544 70.1923 26.3793C70.5192 25.9921 70.949 25.6836 71.4818 25.4537C72.0266 25.2116 72.6865 25.0906 73.4614 25.0906C74.648 25.0906 75.5863 25.3871 76.2765 25.98C76.9666 26.5729 77.3117 27.432 77.3117 28.5572V31.9149C77.3117 32.2779 77.4812 32.4594 77.8202 32.4594H78.5467V34.347H77.0211C76.5731 34.347 76.2038 34.2381 75.9132 34.0203C75.6227 33.8025 75.4774 33.5121 75.4774 33.1491V33.131H75.1323C75.0838 33.2762 74.9749 33.4698 74.8054 33.7117C74.6358 33.9417 74.3695 34.1473 74.0062 34.3288C73.643 34.5103 73.1466 34.601 72.517 34.601ZM72.9166 32.7498C73.5583 32.7498 74.0789 32.5743 74.4785 32.2234C74.8901 31.8605 75.0959 31.3826 75.0959 30.7896V30.6082H72.7894C72.3656 30.6082 72.0326 30.6989 71.7905 30.8804C71.5483 31.0619 71.4273 31.316 71.4273 31.6427C71.4273 31.9694 71.5544 32.2355 71.8087 32.4413C72.0629 32.647 72.4322 32.7498 72.9166 32.7498ZM79.1301 34.347V25.3448H81.3822V26.5245H81.7091C81.8544 26.2099 82.1268 25.9134 82.5264 25.6352C82.9259 25.3448 83.5313 25.1996 84.3425 25.1996C85.0448 25.1996 85.6562 25.363 86.1769 25.6896C86.7098 26.0042 87.1217 26.4459 87.4115 27.0145C87.7023 27.5711 87.8477 28.2245 87.8477 28.9747V34.347H85.5594V29.1562C85.5594 28.4786 85.3899 27.9704 85.0509 27.6316C84.724 27.2928 84.2518 27.1234 83.6343 27.1234C82.932 27.1234 82.3872 27.3594 81.9997 27.8313C81.6123 28.291 81.4185 28.9384 81.4185 29.7733V34.347H79.1301ZM93.4636 34.601C92.5922 34.601 91.7987 34.4196 91.0848 34.0566C90.3822 33.6936 89.8249 33.1673 89.4139 32.4776C89.002 31.7879 88.796 30.953 88.796 29.973V29.7188C88.796 28.7387 89.002 27.9039 89.4139 27.2142C89.8249 26.5245 90.3822 25.9982 91.0848 25.6352C91.7987 25.2722 92.5922 25.0906 93.4636 25.0906C94.3228 25.0906 95.0618 25.2419 95.6796 25.5444C96.2966 25.8469 96.7933 26.2644 97.1688 26.7968C97.5556 27.317 97.81 27.91 97.9312 28.5754L95.716 29.0473C95.6675 28.6843 95.5585 28.3576 95.3889 28.0672C95.2193 27.7768 94.977 27.5469 94.662 27.3775C94.3592 27.2081 93.9784 27.1234 93.5181 27.1234C93.0577 27.1234 92.6406 27.2263 92.2651 27.432C91.9017 27.6255 91.6109 27.922 91.3929 28.3213C91.1869 28.7085 91.0848 29.1865 91.0848 29.7551V29.9366C91.0848 30.5053 91.1869 30.9893 91.3929 31.3886C91.6109 31.7758 91.9017 32.0722 92.2651 32.2779C92.6406 32.4715 93.0577 32.5683 93.5181 32.5683C94.2086 32.5683 94.7286 32.3928 95.08 32.042C95.4434 31.679 95.6736 31.2071 95.7705 30.6263L97.9857 31.1526C97.8282 31.7939 97.5556 32.3807 97.1688 32.9132C96.7933 33.4335 96.2966 33.8448 95.6796 34.1473C95.0618 34.4498 94.3228 34.601 93.4636 34.601ZM102.889 34.601C101.992 34.601 101.199 34.4136 100.509 34.0384C99.8314 33.6512 99.2984 33.1128 98.9107 32.4231C98.536 31.7214 98.3483 30.8986 98.3483 29.9548V29.737C98.3483 28.7932 98.536 27.9765 98.9107 27.2867C99.2863 26.585 99.8132 26.0465 100.491 25.6715C101.169 25.2843 101.956 25.0906 102.852 25.0906C103.736 25.0906 104.505 25.2903 105.158 25.6896C105.812 26.0768 106.321 26.6213 106.684 27.3231C107.047 28.0128 107.229 28.8174 107.229 29.737V30.5174H100.672C100.697 31.1345 100.927 31.6366 101.363 32.0239C101.798 32.411 102.331 32.6046 102.961 32.6046C103.602 32.6046 104.075 32.4655 104.378 32.1872C104.681 31.9088 104.911 31.6003 105.067 31.2615L106.938 32.2416C106.769 32.5562 106.521 32.901 106.194 33.2762C105.879 33.6392 105.455 33.9538 104.923 34.2199C104.39 34.474 103.711 34.601 102.889 34.601ZM100.691 28.8114H104.905C104.856 28.291 104.644 27.8736 104.269 27.559C103.905 27.2445 103.427 27.0872 102.834 27.0872C102.216 27.0872 101.726 27.2445 101.363 27.559C101 27.8736 100.775 28.291 100.691 28.8114Z" fill="#9A74EB"/>
</g>
<defs>
<clipPath id="clip0_429_8720">
<rect width="108" height="37.9527" fill="white" transform="translate(0 0.0236206)"/>
</clipPath>
</defs>
</svg>
