<svg width="1267" height="664" viewBox="0 0 1267 664" fill="none" xmlns="http://www.w3.org/2000/svg">
<g filter="url(#filter0_d_588_1443)">
<mask id="path-1-inside-1_588_1443" fill="white">
<path d="M1237 642.5C1237 482.442 1173.42 328.939 1060.24 215.761C947.061 102.583 793.558 39 633.5 39C473.442 39 319.939 102.583 206.761 215.761C93.5829 328.939 30 482.442 30 642.5L633.5 642.5H1237Z"/>
</mask>
<path d="M1237 642.5C1237 482.442 1173.42 328.939 1060.24 215.761C947.061 102.583 793.558 39 633.5 39C473.442 39 319.939 102.583 206.761 215.761C93.5829 328.939 30 482.442 30 642.5L633.5 642.5H1237Z" fill="#F3F3F3"/>
<path d="M1237 642.5C1237 482.442 1173.42 328.939 1060.24 215.761C947.061 102.583 793.558 39 633.5 39C473.442 39 319.939 102.583 206.761 215.761C93.5829 328.939 30 482.442 30 642.5L633.5 642.5H1237Z" stroke="url(#paint0_radial_588_1443)" stroke-width="2" mask="url(#path-1-inside-1_588_1443)"/>
</g>
<defs>
<filter id="filter0_d_588_1443" x="0" y="0" width="1267" height="663.5" filterUnits="userSpaceOnUse" color-interpolation-filters="sRGB">
<feFlood flood-opacity="0" result="BackgroundImageFix"/>
<feColorMatrix in="SourceAlpha" type="matrix" values="0 0 0 0 0 0 0 0 0 0 0 0 0 0 0 0 0 0 127 0" result="hardAlpha"/>
<feOffset dy="-9"/>
<feGaussianBlur stdDeviation="15"/>
<feComposite in2="hardAlpha" operator="out"/>
<feColorMatrix type="matrix" values="0 0 0 0 0.603922 0 0 0 0 0.454902 0 0 0 0 0.921569 0 0 0 0.3 0"/>
<feBlend mode="normal" in2="BackgroundImageFix" result="effect1_dropShadow_588_1443"/>
<feBlend mode="normal" in="SourceGraphic" in2="effect1_dropShadow_588_1443" result="shape"/>
</filter>
<radialGradient id="paint0_radial_588_1443" cx="0" cy="0" r="1" gradientUnits="userSpaceOnUse" gradientTransform="translate(634.976 39.0001) rotate(90) scale(1207 515.199)">
<stop stop-color="#9A74EB"/>
<stop offset="1" stop-color="#161616"/>
</radialGradient>
</defs>
</svg>
