<svg width="14" height="14" viewBox="0 0 14 14" fill="none" xmlns="http://www.w3.org/2000/svg">
<mask id="mask0_1342_3784" style="mask-type:alpha" maskUnits="userSpaceOnUse" x="0" y="0" width="14" height="14">
<rect width="14" height="14" fill="#D9D9D9"/>
</mask>
<g mask="url(#mask0_1342_3784)">
<path d="M6.9974 9.91675C7.16267 9.91675 7.30122 9.86085 7.41302 9.74904C7.52483 9.63723 7.58073 9.49869 7.58073 9.33341C7.58073 9.16814 7.52483 9.0296 7.41302 8.91779C7.30122 8.80598 7.16267 8.75008 6.9974 8.75008C6.83212 8.75008 6.69358 8.80598 6.58177 8.91779C6.46997 9.0296 6.41406 9.16814 6.41406 9.33341C6.41406 9.49869 6.46997 9.63723 6.58177 9.74904C6.69358 9.86085 6.83212 9.91675 6.9974 9.91675ZM6.41406 7.58341H7.58073V4.08341H6.41406V7.58341ZM6.9974 12.8334C6.19045 12.8334 5.43212 12.6803 4.7224 12.374C4.01267 12.0678 3.39531 11.6522 2.87031 11.1272C2.34531 10.6022 1.92969 9.9848 1.62344 9.27508C1.31719 8.56536 1.16406 7.80703 1.16406 7.00008C1.16406 6.19314 1.31719 5.4348 1.62344 4.72508C1.92969 4.01536 2.34531 3.398 2.87031 2.873C3.39531 2.348 4.01267 1.93237 4.7224 1.62612C5.43212 1.31987 6.19045 1.16675 6.9974 1.16675C7.80434 1.16675 8.56267 1.31987 9.2724 1.62612C9.98212 1.93237 10.5995 2.348 11.1245 2.873C11.6495 3.398 12.0651 4.01536 12.3714 4.72508C12.6776 5.4348 12.8307 6.19314 12.8307 7.00008C12.8307 7.80703 12.6776 8.56536 12.3714 9.27508C12.0651 9.9848 11.6495 10.6022 11.1245 11.1272C10.5995 11.6522 9.98212 12.0678 9.2724 12.374C8.56267 12.6803 7.80434 12.8334 6.9974 12.8334ZM6.9974 11.6667C8.30017 11.6667 9.40365 11.2147 10.3078 10.3105C11.212 9.40633 11.6641 8.30286 11.6641 7.00008C11.6641 5.6973 11.212 4.59383 10.3078 3.68966C9.40365 2.7855 8.30017 2.33341 6.9974 2.33341C5.69462 2.33341 4.59115 2.7855 3.68698 3.68966C2.78281 4.59383 2.33073 5.6973 2.33073 7.00008C2.33073 8.30286 2.78281 9.40633 3.68698 10.3105C4.59115 11.2147 5.69462 11.6667 6.9974 11.6667Z" fill="#AAAAAA"/>
</g>
</svg>
