<svg width="36" height="37" viewBox="0 0 36 37" fill="none" xmlns="http://www.w3.org/2000/svg">
<rect y="0.230774" width="36" height="36" rx="10.3226" fill="url(#paint0_radial_429_8768)"/>
<rect x="2.375" y="2.60572" width="31.25" height="31.25" rx="10.3226" fill="url(#paint1_radial_429_8768)"/>
<mask id="mask0_429_8768" style="mask-type:alpha" maskUnits="userSpaceOnUse" x="9" y="9" width="18" height="19">
<rect x="9" y="9.23078" width="18" height="18" fill="#D9D9D9"/>
</mask>
<g mask="url(#mask0_429_8768)">
<path d="M21 17.4808C21.2125 17.4808 21.3906 17.4089 21.5344 17.2652C21.6781 17.1214 21.75 16.9433 21.75 16.7308C21.75 16.5183 21.6781 16.3402 21.5344 16.1964C21.3906 16.0527 21.2125 15.9808 21 15.9808C20.7875 15.9808 20.6094 16.0527 20.4656 16.1964C20.3219 16.3402 20.25 16.5183 20.25 16.7308C20.25 16.9433 20.3219 17.1214 20.4656 17.2652C20.6094 17.4089 20.7875 17.4808 21 17.4808ZM15 15.9808H18.75V14.4808H15V15.9808ZM12.375 24.9808C11.95 23.5558 11.5312 22.1339 11.1187 20.7152C10.7062 19.2964 10.5 17.8433 10.5 16.3558C10.5 15.2058 10.9 14.2308 11.7 13.4308C12.5 12.6308 13.475 12.2308 14.625 12.2308H18.375C18.7375 11.7558 19.1781 11.387 19.6969 11.1245C20.2156 10.862 20.775 10.7308 21.375 10.7308C21.6875 10.7308 21.9531 10.8402 22.1719 11.0589C22.3906 11.2777 22.5 11.5433 22.5 11.8558C22.5 11.9183 22.4688 12.062 22.4062 12.287C22.3562 12.4245 22.3094 12.5652 22.2656 12.7089C22.2219 12.8527 22.1875 12.9995 22.1625 13.1495L23.8688 14.8558H25.5V20.087L23.3813 20.7808L22.125 24.9808H18V23.4808H16.5V24.9808H12.375Z" fill="#936EE2"/>
</g>
<defs>
<radialGradient id="paint0_radial_429_8768" cx="0" cy="0" r="1" gradientUnits="userSpaceOnUse" gradientTransform="translate(1.73077 -12.5769) rotate(71.4584) scale(58.782)">
<stop stop-color="#854CFF"/>
<stop offset="1" stop-color="#090909"/>
</radialGradient>
<radialGradient id="paint1_radial_429_8768" cx="0" cy="0" r="1" gradientUnits="userSpaceOnUse" gradientTransform="translate(3.8774 -8.51207) rotate(71.4584) scale(51.026)">
<stop stop-color="#7435FA"/>
<stop offset="1" stop-color="#050505"/>
</radialGradient>
</defs>
</svg>
