<svg width="18" height="18" viewBox="0 0 18 18" fill="none" xmlns="http://www.w3.org/2000/svg">
<mask id="mask0_451_7571" style="mask-type:alpha" maskUnits="userSpaceOnUse" x="0" y="0" width="18" height="18">
<rect width="18" height="18" fill="#D9D9D9"/>
</mask>
<g mask="url(#mask0_451_7571)">
<path d="M7.425 10.575C7.025 10.175 6.65938 9.75625 6.32812 9.31875C5.99687 8.88125 5.69375 8.41875 5.41875 7.93125C5.35625 8.10625 5.31563 8.28438 5.29688 8.46563C5.27812 8.64688 5.26875 8.825 5.26875 9C5.26875 10.0375 5.63125 10.9188 6.35625 11.6438C7.08125 12.3688 7.9625 12.7313 9 12.7313C9.175 12.7313 9.35313 12.7188 9.53438 12.6938C9.71563 12.6688 9.89375 12.6312 10.0688 12.5812C9.58125 12.3062 9.11875 12.0031 8.68125 11.6719C8.24375 11.3406 7.825 10.975 7.425 10.575ZM8.49375 9.525C9.13125 10.1625 9.84375 10.7094 10.6313 11.1656C11.4187 11.6219 12.2625 11.975 13.1625 12.225C12.6625 12.8625 12.05 13.3594 11.325 13.7156C10.6 14.0719 9.83125 14.25 9.01875 14.25C7.55625 14.25 6.31563 13.7406 5.29688 12.7219C4.27812 11.7031 3.76875 10.4625 3.76875 9C3.76875 8.1875 3.94688 7.41875 4.30313 6.69375C4.65938 5.96875 5.15625 5.35625 5.79375 4.85625C6.04375 5.75625 6.39687 6.6 6.85312 7.3875C7.30937 8.175 7.85625 8.8875 8.49375 9.525ZM13.9313 10.875C13.6813 10.8125 13.4344 10.7438 13.1906 10.6688C12.9469 10.5938 12.7063 10.5063 12.4688 10.4062C12.5688 10.1812 12.6406 9.95312 12.6844 9.72188C12.7281 9.49063 12.75 9.25 12.75 9C12.75 7.9625 12.3844 7.07813 11.6531 6.34688C10.9219 5.61563 10.0375 5.25 9 5.25C8.75 5.25 8.50938 5.27187 8.27813 5.31563C8.04688 5.35938 7.81875 5.43125 7.59375 5.53125C7.49375 5.29375 7.40938 5.05625 7.34063 4.81875C7.27188 4.58125 7.20625 4.3375 7.14375 4.0875C7.44375 3.975 7.75 3.89063 8.0625 3.83438C8.375 3.77813 8.69375 3.75 9.01875 3.75C10.4813 3.75 11.7219 4.25938 12.7406 5.27812C13.7594 6.29688 14.2687 7.5375 14.2687 9C14.2687 9.325 14.2406 9.64375 14.1844 9.95625C14.1281 10.2688 14.0438 10.575 13.9313 10.875ZM8.25 2.25V0H9.75V2.25H8.25ZM8.25 18V15.75H9.75V18H8.25ZM14.3063 4.7625L13.2375 3.69375L14.8312 2.11875L15.9 3.16875L14.3063 4.7625ZM3.16875 15.8813L2.1 14.8312L3.69375 13.2375L4.7625 14.3063L3.16875 15.8813ZM15.75 9.75V8.25H18V9.75H15.75ZM0 9.75V8.25H2.25V9.75H0ZM14.8312 15.9L13.2375 14.3063L14.3063 13.2375L15.8813 14.8312L14.8312 15.9ZM3.69375 4.7625L2.11875 3.16875L3.16875 2.1L4.7625 3.69375L3.69375 4.7625Z" fill="#AAAAAA"/>
</g>
</svg>
