<svg width="36" height="37" viewBox="0 0 36 37" fill="none" xmlns="http://www.w3.org/2000/svg">
<rect y="0.230774" width="36" height="36" rx="10.3226" fill="url(#paint0_radial_429_8756)"/>
<rect x="2.375" y="2.60572" width="31.25" height="31.25" rx="10.3226" fill="url(#paint1_radial_429_8756)"/>
<mask id="mask0_429_8756" style="mask-type:alpha" maskUnits="userSpaceOnUse" x="9" y="9" width="18" height="19">
<rect x="9" y="9.23078" width="18" height="18" fill="#D9D9D9"/>
</mask>
<g mask="url(#mask0_429_8756)">
<path d="M17.25 23.4808H18.75V21.2308H21V19.7308H18.75V17.4808H17.25V19.7308H15V21.2308H17.25V23.4808ZM13.5 25.7308C13.0875 25.7308 12.7344 25.5839 12.4406 25.2902C12.1469 24.9964 12 24.6433 12 24.2308V16.7308C12 16.3183 12.1469 15.9652 12.4406 15.6714C12.7344 15.3777 13.0875 15.2308 13.5 15.2308H14.25V13.7308C14.25 12.6933 14.6156 11.8089 15.3469 11.0777C16.0781 10.3464 16.9625 9.98078 18 9.98078C19.0375 9.98078 19.9219 10.3464 20.6531 11.0777C21.3844 11.8089 21.75 12.6933 21.75 13.7308V15.2308H22.5C22.9125 15.2308 23.2656 15.3777 23.5594 15.6714C23.8531 15.9652 24 16.3183 24 16.7308V24.2308C24 24.6433 23.8531 24.9964 23.5594 25.2902C23.2656 25.5839 22.9125 25.7308 22.5 25.7308H13.5ZM15.75 15.2308H20.25V13.7308C20.25 13.1058 20.0312 12.5745 19.5938 12.137C19.1562 11.6995 18.625 11.4808 18 11.4808C17.375 11.4808 16.8438 11.6995 16.4062 12.137C15.9688 12.5745 15.75 13.1058 15.75 13.7308V15.2308Z" fill="#9A74EB"/>
</g>
<defs>
<radialGradient id="paint0_radial_429_8756" cx="0" cy="0" r="1" gradientUnits="userSpaceOnUse" gradientTransform="translate(1.73077 -12.5769) rotate(71.4584) scale(58.782)">
<stop stop-color="#854CFF"/>
<stop offset="1" stop-color="#090909"/>
</radialGradient>
<radialGradient id="paint1_radial_429_8756" cx="0" cy="0" r="1" gradientUnits="userSpaceOnUse" gradientTransform="translate(3.8774 -8.51207) rotate(71.4584) scale(51.026)">
<stop stop-color="#7435FA"/>
<stop offset="1" stop-color="#050505"/>
</radialGradient>
</defs>
</svg>
