<svg width="36" height="37" viewBox="0 0 36 37" fill="none" xmlns="http://www.w3.org/2000/svg">
<rect y="0.230774" width="36" height="36" rx="10.3226" fill="url(#paint0_radial_429_8780)"/>
<rect x="2.375" y="2.60572" width="31.25" height="31.25" rx="10.3226" fill="url(#paint1_radial_429_8780)"/>
<mask id="mask0_429_8780" style="mask-type:alpha" maskUnits="userSpaceOnUse" x="9" y="9" width="18" height="19">
<rect x="9" y="9.23078" width="18" height="18" fill="#D9D9D9"/>
</mask>
<g mask="url(#mask0_429_8780)">
<path d="M13.3875 22.0558C14.025 21.5683 14.7375 21.1839 15.525 20.9027C16.3125 20.6214 17.1375 20.4808 18 20.4808C18.8625 20.4808 19.6875 20.6214 20.475 20.9027C21.2625 21.1839 21.975 21.5683 22.6125 22.0558C23.05 21.5433 23.3906 20.962 23.6344 20.312C23.8781 19.662 24 18.9683 24 18.2308C24 16.5683 23.4156 15.1527 22.2469 13.9839C21.0781 12.8152 19.6625 12.2308 18 12.2308C16.3375 12.2308 14.9219 12.8152 13.7531 13.9839C12.5844 15.1527 12 16.5683 12 18.2308C12 18.9683 12.1219 19.662 12.3656 20.312C12.6094 20.962 12.95 21.5433 13.3875 22.0558ZM18 18.9808C17.2625 18.9808 16.6406 18.7277 16.1344 18.2214C15.6281 17.7152 15.375 17.0933 15.375 16.3558C15.375 15.6183 15.6281 14.9964 16.1344 14.4902C16.6406 13.9839 17.2625 13.7308 18 13.7308C18.7375 13.7308 19.3594 13.9839 19.8656 14.4902C20.3719 14.9964 20.625 15.6183 20.625 16.3558C20.625 17.0933 20.3719 17.7152 19.8656 18.2214C19.3594 18.7277 18.7375 18.9808 18 18.9808ZM18 25.7308C16.9625 25.7308 15.9875 25.5339 15.075 25.1402C14.1625 24.7464 13.3688 24.212 12.6937 23.537C12.0187 22.862 11.4844 22.0683 11.0906 21.1558C10.6969 20.2433 10.5 19.2683 10.5 18.2308C10.5 17.1933 10.6969 16.2183 11.0906 15.3058C11.4844 14.3933 12.0187 13.5995 12.6937 12.9245C13.3688 12.2495 14.1625 11.7152 15.075 11.3214C15.9875 10.9277 16.9625 10.7308 18 10.7308C19.0375 10.7308 20.0125 10.9277 20.925 11.3214C21.8375 11.7152 22.6313 12.2495 23.3063 12.9245C23.9813 13.5995 24.5156 14.3933 24.9094 15.3058C25.3031 16.2183 25.5 17.1933 25.5 18.2308C25.5 19.2683 25.3031 20.2433 24.9094 21.1558C24.5156 22.0683 23.9813 22.862 23.3063 23.537C22.6313 24.212 21.8375 24.7464 20.925 25.1402C20.0125 25.5339 19.0375 25.7308 18 25.7308Z" fill="#936EE2"/>
</g>
<defs>
<radialGradient id="paint0_radial_429_8780" cx="0" cy="0" r="1" gradientUnits="userSpaceOnUse" gradientTransform="translate(1.73077 -12.5769) rotate(71.4584) scale(58.782)">
<stop stop-color="#854CFF"/>
<stop offset="1" stop-color="#090909"/>
</radialGradient>
<radialGradient id="paint1_radial_429_8780" cx="0" cy="0" r="1" gradientUnits="userSpaceOnUse" gradientTransform="translate(3.8774 -8.51207) rotate(71.4584) scale(51.026)">
<stop stop-color="#7435FA"/>
<stop offset="1" stop-color="#050505"/>
</radialGradient>
</defs>
</svg>
