<svg width="48" height="48" viewBox="0 0 48 48" fill="none" xmlns="http://www.w3.org/2000/svg">
<rect width="48" height="48" rx="13.7634" fill="url(#paint0_radial_429_9632)"/>
<rect x="3.16406" y="3.1665" width="41.6667" height="41.6667" rx="13.7634" fill="url(#paint1_radial_429_9632)"/>
<mask id="mask0_429_9632" style="mask-type:alpha" maskUnits="userSpaceOnUse" x="12" y="12" width="24" height="24">
<rect x="12" y="12" width="24" height="24" fill="#D9D9D9"/>
</mask>
<g mask="url(#mask0_429_9632)">
<path d="M21 21V19H30V21H21ZM21 24V22H30V24H21ZM26 34V30.925L31.525 25.425C31.675 25.275 31.8417 25.1667 32.025 25.1C32.2083 25.0333 32.3917 25 32.575 25C32.775 25 32.9667 25.0375 33.15 25.1125C33.3333 25.1875 33.5 25.3 33.65 25.45L34.575 26.375C34.7083 26.525 34.8125 26.6917 34.8875 26.875C34.9625 27.0583 35 27.2417 35 27.425C35 27.6083 34.9667 27.7958 34.9 27.9875C34.8333 28.1792 34.725 28.35 34.575 28.5L29.075 34H26ZM32.575 28.4L33.5 27.425L32.575 26.5L31.625 27.45L32.575 28.4ZM18 34C17.1667 34 16.4583 33.7083 15.875 33.125C15.2917 32.5417 15 31.8333 15 31V28H18V14H33V23.025C32.6667 22.9917 32.3292 23.0042 31.9875 23.0625C31.6458 23.1208 31.3167 23.225 31 23.375V16H20V28H26L24 30V34H18Z" fill="#9A74EB"/>
</g>
<defs>
<radialGradient id="paint0_radial_429_9632" cx="0" cy="0" r="1" gradientUnits="userSpaceOnUse" gradientTransform="translate(2.30769 -17.0769) rotate(71.4584) scale(78.376)">
<stop stop-color="#854CFF"/>
<stop offset="1" stop-color="#090909"/>
</radialGradient>
<radialGradient id="paint1_radial_429_9632" cx="0" cy="0" r="1" gradientUnits="userSpaceOnUse" gradientTransform="translate(5.16726 -11.6572) rotate(71.4584) scale(68.0347)">
<stop stop-color="#7435FA"/>
<stop offset="1" stop-color="#050505"/>
</radialGradient>
</defs>
</svg>
